<?xml version="1.0" standalone="no"?>
<!DOCTYPE svg PUBLIC "-//W3C//DTD SVG 20010904//EN"
 "http://www.w3.org/TR/2001/REC-SVG-20010904/DTD/svg10.dtd">
<svg version="1.0" xmlns="http://www.w3.org/2000/svg"
 width="388.000000pt" height="388.000000pt" viewBox="0 0 388.000000 388.000000"
 preserveAspectRatio="xMidYMid meet">
<metadata>
Created by potrace 1.14, written by Peter Selinger 2001-2017
</metadata>
<g transform="translate(0.000000,388.000000) scale(0.100000,-0.100000)"
fill="#000000" stroke="none">
<path d="M849 2803 c0 -10 0 -127 -1 -260 0 -134 -2 -243 -4 -243 -2 0 -24 13
-50 30 -107 68 -270 95 -379 63 -327 -96 -501 -447 -363 -732 42 -88 143 -189
228 -228 145 -68 271 -70 445 -6 81 30 124 56 215 126 84 65 118 103 297 328
81 102 175 217 208 255 103 120 278 291 320 313 l40 21 -125 -4 c-69 -3 -156
-5 -195 -6 l-70 -1 -35 -52 c-56 -83 -257 -356 -319 -432 -31 -38 -65 -81 -76
-95 -56 -70 -206 -205 -265 -238 -159 -89 -327 -71 -433 48 -48 53 -67 103
-67 174 0 134 67 245 180 299 35 17 64 22 130 22 74 0 92 -4 139 -28 65 -34
139 -107 166 -162 14 -30 19 -62 20 -127 0 -49 1 -88 2 -88 6 0 58 57 129 140
l81 96 3 84 c2 47 4 227 4 400 l1 315 -112 3 c-103 2 -113 1 -114 -15z"/>
<path d="M3779 2353 c0 -5 -1 -101 -2 -215 l-2 -208 28 0 27 0 0 215 0 215
-25 0 c-14 0 -25 -3 -26 -7z"/>
<path d="M1943 2327 c-3 -5 -6 -95 -6 -201 l0 -191 75 -3 c160 -6 258 72 258
207 0 98 -51 169 -136 190 -54 14 -182 13 -191 -2z m183 -42 c19 -8 42 -22 51
-30 24 -25 41 -85 36 -130 -11 -98 -64 -147 -164 -151 l-59 -3 0 165 0 164 50
0 c28 0 66 -7 86 -15z"/>
<path d="M2390 2321 c-7 -15 -6 -24 6 -36 19 -18 33 -16 48 7 7 12 6 21 -3 32
-18 22 -38 20 -51 -3z"/>
<path d="M2971 2322 c-21 -39 29 -67 53 -29 7 11 6 20 -3 31 -18 21 -38 20
-50 -2z"/>
<path d="M3192 2301 c-7 -4 -14 -22 -14 -39 -1 -27 -5 -32 -25 -32 -16 0 -23
-6 -23 -20 0 -14 7 -20 23 -20 22 0 23 -3 24 -107 2 -103 4 -109 29 -131 35
-31 88 -27 92 5 3 17 -1 21 -12 17 -8 -3 -24 -1 -35 6 -19 10 -21 20 -21 110
l0 100 34 0 c20 0 36 6 39 14 8 20 -2 26 -40 26 -32 0 -33 1 -33 40 0 40 -11
49 -38 31z"/>
<path d="M2398 2218 c-3 -11 -2 -256 1 -280 1 -5 12 -8 26 -8 l25 0 0 150 0
150 -24 0 c-13 0 -26 -6 -28 -12z"/>
<path d="M2629 2213 c-86 -53 -89 -212 -6 -264 39 -24 107 -21 139 7 l21 19
-6 -43 c-8 -61 -37 -84 -102 -78 -27 2 -58 7 -67 11 -14 5 -18 2 -18 -14 0
-40 97 -55 165 -27 33 14 67 54 72 85 2 9 4 84 5 166 1 147 1 150 -20 153 -21
3 -27 -9 -23 -43 1 -5 -4 -3 -11 6 -33 41 -103 51 -149 22z m127 -50 c21 -23
25 -35 23 -85 -3 -70 -18 -95 -63 -104 -39 -7 -70 7 -87 38 -58 107 50 235
127 151z"/>
<path d="M2979 2213 c0 -10 -1 -76 -2 -148 l-1 -130 27 -3 27 -3 0 150 0 151
-25 0 c-17 0 -25 -6 -26 -17z"/>
<path d="M3463 2210 c-42 -25 -62 -57 -69 -112 -16 -117 61 -183 190 -164 36
6 46 11 46 26 0 18 -6 19 -64 13 -62 -6 -66 -5 -95 25 -17 17 -31 38 -31 46 0
18 -1 18 123 18 l89 0 -5 42 c-6 57 -23 88 -58 109 -40 22 -86 22 -126 -3z
m110 -37 c8 -10 19 -30 22 -45 l7 -28 -82 0 c-71 0 -81 2 -76 16 3 9 6 19 6
23 0 4 9 17 20 29 26 27 80 29 103 5z"/>
<path d="M1168 1757 c-89 -105 -259 -276 -291 -294 -17 -9 -19 -24 -20 -131 0
-67 2 -124 5 -128 5 -5 134 -8 191 -5 16 1 17 17 17 190 0 180 1 190 20 196
11 3 28 17 38 30 l19 23 106 -219 c77 -159 112 -219 124 -220 23 -1 267 -1
272 0 3 1 -29 36 -70 79 -77 79 -149 172 -149 190 0 6 -4 12 -8 14 -19 8 -140
277 -164 365 -2 7 -42 -33 -90 -90z"/>
<path d="M1930 1425 l0 -215 25 0 c17 0 25 6 26 18 0 9 1 36 2 59 2 37 20 75
30 62 2 -2 25 -34 51 -71 40 -58 51 -68 77 -68 34 0 37 -6 -38 98 -29 41 -53
77 -53 81 0 3 22 29 50 56 27 28 50 53 50 58 0 4 -13 7 -29 7 -21 0 -36 -10
-57 -36 -16 -20 -41 -50 -56 -67 l-26 -31 0 114 c0 160 1 150 -27 150 l-25 0
0 -215z"/>
<path d="M3743 1583 c-7 -2 -13 -20 -13 -39 0 -30 -3 -34 -25 -34 -18 0 -25
-5 -25 -20 0 -15 7 -20 26 -20 25 0 25 -2 24 -57 -3 -124 0 -162 16 -177 20
-20 58 -30 88 -22 18 4 23 11 19 27 -4 12 -11 18 -20 15 -8 -3 -23 -1 -34 4
-17 10 -19 22 -19 110 l0 100 34 0 c20 0 36 6 39 14 8 20 -2 26 -40 26 -32 0
-33 1 -33 40 0 39 -7 46 -37 33z"/>
<path d="M2582 1499 c-24 -7 -32 -14 -28 -25 3 -9 6 -17 6 -18 0 -2 17 1 38 7
50 13 90 2 104 -28 14 -31 11 -35 -42 -41 -125 -15 -177 -122 -83 -172 31 -17
63 -15 105 7 21 10 37 16 36 12 -2 -22 5 -31 25 -31 22 0 22 1 16 117 -3 65
-9 126 -13 136 -19 41 -91 57 -164 36z m125 -180 c-6 -45 -29 -68 -67 -69 -30
0 -44 9 -53 33 -14 39 30 76 92 77 l34 0 -6 -41z"/>
<path d="M3170 1359 l0 -150 27 3 26 3 1 95 c1 107 13 138 56 146 20 4 29 13
33 31 4 23 2 25 -27 19 -17 -3 -41 -18 -52 -32 -18 -22 -22 -23 -21 -8 0 38
-3 44 -23 44 -19 0 -20 -7 -20 -151z"/>
</g>
</svg>
